<svg width="62" height="62" viewBox="0 0 62 62" fill="none" xmlns="http://www.w3.org/2000/svg">
<g filter="url(#filter0_d_45_249)">
<path d="M38.0321 20.5308C36.8697 19.5644 35.5196 18.849 34.0668 18.4298C32.614 18.0105 31.09 17.8964 29.5909 18.0946C26.8175 18.4545 24.2853 19.8554 22.5082 22.0128C20.7312 24.1702 19.8426 26.9224 20.0229 29.7105C20.2032 32.4986 21.4389 35.1137 23.479 37.0248C25.5191 38.9358 28.2107 39.9995 31.0074 40H37.4129C38.629 39.9985 39.7949 39.5153 40.6548 38.6561C41.5148 37.797 41.9985 36.6322 42 35.4173V28.3681V28.3104C41.9029 26.8122 41.5009 25.3496 40.8187 24.012C40.1365 22.6743 39.1883 21.4898 38.0321 20.5308ZM27.3211 24.4187H30.9909C31.2342 24.4187 31.4675 24.5153 31.6396 24.6872C31.8116 24.8591 31.9083 25.0922 31.9083 25.3353C31.9083 25.5784 31.8116 25.8115 31.6396 25.9834C31.4675 26.1553 31.2342 26.2518 30.9909 26.2518H27.3211C27.0778 26.2518 26.8445 26.1553 26.6724 25.9834C26.5004 25.8115 26.4037 25.5784 26.4037 25.3353C26.4037 25.0922 26.5004 24.8591 26.6724 24.6872C26.8445 24.5153 27.0778 24.4187 27.3211 24.4187ZM34.6606 33.5842H27.3211C27.0778 33.5842 26.8445 33.4876 26.6724 33.3157C26.5004 33.1439 26.4037 32.9107 26.4037 32.6676C26.4037 32.4246 26.5004 32.1914 26.6724 32.0195C26.8445 31.8477 27.0778 31.7511 27.3211 31.7511H34.6606C34.9039 31.7511 35.1372 31.8477 35.3093 32.0195C35.4813 32.1914 35.578 32.4246 35.578 32.6676C35.578 32.9107 35.4813 33.1439 35.3093 33.3157C35.1372 33.4876 34.9039 33.5842 34.6606 33.5842ZM34.6606 29.918H27.3211C27.0778 29.918 26.8445 29.8214 26.6724 29.6496C26.5004 29.4777 26.4037 29.2445 26.4037 29.0015C26.4037 28.7584 26.5004 28.5253 26.6724 28.3534C26.8445 28.1815 27.0778 28.0849 27.3211 28.0849H34.6606C34.9039 28.0849 35.1372 28.1815 35.3093 28.3534C35.4813 28.5253 35.578 28.7584 35.578 29.0015C35.578 29.2445 35.4813 29.4777 35.3093 29.6496C35.1372 29.8214 34.9039 29.918 34.6606 29.918Z" fill="white"/>
</g>
<defs>
<filter id="filter0_d_45_249" x="0" y="0" width="62" height="62" filterUnits="userSpaceOnUse" color-interpolation-filters="sRGB">
<feFlood flood-opacity="0" result="BackgroundImageFix"/>
<feColorMatrix in="SourceAlpha" type="matrix" values="0 0 0 0 0 0 0 0 0 0 0 0 0 0 0 0 0 0 127 0" result="hardAlpha"/>
<feOffset dy="2"/>
<feGaussianBlur stdDeviation="10"/>
<feComposite in2="hardAlpha" operator="out"/>
<feColorMatrix type="matrix" values="0 0 0 0 0 0 0 0 0 0 0 0 0 0 0 0 0 0 0.25 0"/>
<feBlend mode="normal" in2="BackgroundImageFix" result="effect1_dropShadow_45_249"/>
<feBlend mode="normal" in="SourceGraphic" in2="effect1_dropShadow_45_249" result="shape"/>
</filter>
</defs>
</svg>
