<svg width="57" height="57" viewBox="0 0 57 57" fill="none" xmlns="http://www.w3.org/2000/svg">
<g filter="url(#filter0_d_45_328)">
<path d="M23.909 28.2387L23.1746 27.6849H23.1755L21.3891 26.3363C21.1272 26.1386 20.9287 25.8575 20.8264 25.5303C20.7241 25.203 20.7245 24.8499 20.8277 24.5229C20.9309 24.196 21.1301 23.9154 21.3924 23.7185C21.6542 23.5219 21.9664 23.4178 22.2843 23.4172H25.3802H25.9325L26.0964 22.8898L27.0369 19.8632L27.037 19.863C27.1391 19.5339 27.3385 19.2512 27.6019 19.0528C27.8649 18.8547 28.1789 18.75 28.4986 18.75C28.8183 18.75 29.1323 18.8547 29.3953 19.0528C29.6587 19.2512 29.8581 19.5339 29.9602 19.863L29.9603 19.8632L30.9007 22.8898L31.0646 23.4172H31.617H34.7157C35.0336 23.4178 35.3458 23.5219 35.6076 23.7185C35.8699 23.9154 36.0691 24.196 36.1723 24.5229C36.2755 24.8499 36.2759 25.203 36.1736 25.5303C36.0713 25.8574 35.8729 26.1384 35.6112 26.3361C35.6112 26.3361 35.6111 26.3362 35.6111 26.3362C35.611 26.3363 35.611 26.3363 35.6109 26.3363L33.0882 28.2387L32.6662 28.5569L32.8239 29.0614L33.7821 32.1253C33.7821 32.1253 33.7821 32.1253 33.7821 32.1253C33.8848 32.4538 33.884 32.8081 33.7798 33.136C33.6757 33.4638 33.4749 33.7446 33.2109 33.9411C32.9473 34.1372 32.6333 34.24 32.3141 34.2384C31.9949 34.2368 31.6818 34.1309 31.42 33.932L31.4197 33.9318L28.9519 32.0592L28.4983 31.7149L28.0448 32.0595L25.5777 33.9343L25.5777 33.9343L25.5708 33.9396C25.3122 34.1409 25.0009 34.2483 24.6833 34.25C24.3657 34.2516 24.0535 34.1474 23.7931 33.9489L23.7861 33.9436L23.779 33.9384C23.514 33.746 23.3122 33.4671 23.2085 33.1404C23.1047 32.8134 23.1061 32.4599 23.2123 32.1338L23.2124 32.1338L23.2151 32.1253L24.1732 29.0614L24.331 28.5569L23.909 28.2387Z" stroke="#9F9F9F" stroke-width="1.5" shape-rendering="crispEdges"/>
</g>
<defs>
<filter id="filter0_d_45_328" x="0" y="0" width="57" height="57" filterUnits="userSpaceOnUse" color-interpolation-filters="sRGB">
<feFlood flood-opacity="0" result="BackgroundImageFix"/>
<feColorMatrix in="SourceAlpha" type="matrix" values="0 0 0 0 0 0 0 0 0 0 0 0 0 0 0 0 0 0 127 0" result="hardAlpha"/>
<feOffset dy="2"/>
<feGaussianBlur stdDeviation="10"/>
<feComposite in2="hardAlpha" operator="out"/>
<feColorMatrix type="matrix" values="0 0 0 0 0 0 0 0 0 0 0 0 0 0 0 0 0 0 0.25 0"/>
<feBlend mode="normal" in2="BackgroundImageFix" result="effect1_dropShadow_45_328"/>
<feBlend mode="normal" in="SourceGraphic" in2="effect1_dropShadow_45_328" result="shape"/>
</filter>
</defs>
</svg>
