<svg width="14" height="14" viewBox="0 0 14 14" fill="none" xmlns="http://www.w3.org/2000/svg">
<path d="M12.8765 12.9262L13.4305 12.2901C14.2003 11.4906 14.1945 10.2126 13.3839 9.40142L12.0775 8.19341C11.6927 7.80825 11.1795 7.59233 10.6313 7.59233C10.0831 7.59233 9.57573 7.80242 9.19083 8.18758L8.95756 8.42101C7.39465 7.67987 6.28662 6.57107 5.58681 5.05961L5.82008 4.82034C6.20498 4.43518 6.41492 3.92163 6.41492 3.37891C6.41492 2.83618 6.20498 2.32263 5.83758 1.95498L4.58375 0.601084C4.19886 0.215923 3.68566 0 3.13748 0C2.5893 0 2.09943 0.204252 1.72037 0.571905C1.72037 0.571905 1.09637 1.11463 1.08471 1.1263C0.384895 1.82659 0 2.77199 0 3.78741C0 8.17591 5.82008 14 10.2056 14C11.2203 14 12.165 13.6148 12.8648 12.9145L12.8765 12.9262ZM1.76119 3.79908C1.76119 3.26219 1.95947 2.76032 2.3152 2.39266C2.3152 2.39266 2.93337 1.85577 2.94503 1.83827C3.02085 1.7624 3.10832 1.75073 3.14914 1.75073C3.18997 1.75073 3.28327 1.7624 3.32993 1.81492L4.58375 3.16882C4.65957 3.24469 4.67123 3.33222 4.67123 3.37307C4.67123 3.41392 4.65957 3.50729 4.58375 3.57732L3.9306 4.23677C3.69149 4.48187 3.61568 4.84369 3.73815 5.16465C4.6479 7.55732 6.36244 9.27303 8.82343 10.2593C9.14418 10.3877 9.51741 10.3176 9.76234 10.0725L10.4272 9.41892C10.503 9.34306 10.5905 9.33139 10.6313 9.33139C10.6721 9.33139 10.7654 9.34306 10.8587 9.44227L12.165 10.6503C12.2758 10.767 12.2758 10.9479 12.165 11.0646C12.1534 11.0763 11.611 11.6949 11.611 11.6949C11.2436 12.0509 10.7479 12.2493 10.2056 12.2493C6.47324 12.2493 1.74952 7.00292 1.74952 3.78741L1.76119 3.79908Z" fill="white"/>
</svg>
