<svg width="20" height="20" viewBox="0 0 20 20" fill="none" xmlns="http://www.w3.org/2000/svg">
<path d="M1.68104 19.8002C2.17744 19.9964 2.72625 20.0497 3.25588 19.9531C3.78551 19.8565 4.27137 19.6145 4.65008 19.2587L9.99999 14.3377L15.3499 19.2587C15.5994 19.4928 15.8965 19.6788 16.2242 19.8059C16.5519 19.9331 16.9036 19.9988 17.259 19.9994C17.6242 19.9985 17.9857 19.9307 18.3226 19.8002C18.823 19.6129 19.2508 19.2903 19.55 18.8747C19.8492 18.4591 20.006 17.9697 19.9998 17.4704V4.20386C19.9984 3.08934 19.519 2.02084 18.6669 1.23276C17.8148 0.444669 16.6595 0.00133503 15.4544 0L4.54554 0C3.34047 0.00133503 2.18517 0.444669 1.33306 1.23276C0.480952 2.02084 0.00160179 3.08934 0.000158312 4.20386V17.4704C-0.00570811 17.9701 0.151589 18.4598 0.451481 18.8754C0.751374 19.2911 1.1799 19.6134 1.68104 19.8002Z" fill="white"/>
</svg>
