<svg width="17" height="17" viewBox="0 0 17 17" fill="none" xmlns="http://www.w3.org/2000/svg">
<path d="M16.2917 7.79169H14.875V6.37501C14.875 5.98381 14.5579 5.66669 14.1667 5.66669C13.7755 5.66669 13.4584 5.98381 13.4584 6.37501V7.79169H12.0417C11.6505 7.79169 11.3334 8.10881 11.3334 8.50001C11.3334 8.89121 11.6505 9.20833 12.0417 9.20833H13.4584V10.625C13.4584 11.0162 13.7755 11.3333 14.1667 11.3333C14.5579 11.3333 14.875 11.0162 14.875 10.625V9.20833H16.2917C16.6829 9.20833 17 8.89121 17 8.50001C17 8.10881 16.6829 7.79169 16.2917 7.79169Z" fill="white"/>
<path d="M6.375 8.5C8.72221 8.5 10.625 6.59721 10.625 4.25C10.625 1.90279 8.72221 0 6.375 0C4.02779 0 2.125 1.90279 2.125 4.25C2.125 6.59721 4.02779 8.5 6.375 8.5Z" fill="white"/>
<path d="M6.375 9.91669C2.8558 9.9206 0.00391797 12.7725 0 16.2917C0 16.6829 0.317123 17 0.708322 17H12.0416C12.4328 17 12.75 16.6829 12.75 16.2917C12.7461 12.7725 9.8942 9.92057 6.375 9.91669Z" fill="white"/>
</svg>
