<svg width="17" height="17" viewBox="0 0 17 17" fill="none" xmlns="http://www.w3.org/2000/svg">
<g filter="url(#filter0_d_45_332)">
<path d="M7.7916 6.73V9.20913C7.7916 10.572 6.83747 11.7549 5.5235 12.0212C5.45196 12.0361 5.38113 12.0424 5.311 12.0424C4.81587 12.0424 4.37316 11.6954 4.27045 11.191C4.15358 10.6159 4.52545 10.0549 5.10062 9.93871C5.41796 9.87425 5.66588 9.55338 5.66588 9.20913H5.31171C4.7252 9.20913 4.2492 8.73314 4.2492 8.14665V7.08416C4.2492 6.30146 4.88316 5.66751 5.66588 5.66751H6.72839C7.31489 5.66751 7.79089 6.1435 7.79089 6.73H7.7916ZM11.6875 5.66751H10.625C9.84224 5.66751 9.20828 6.30146 9.20828 7.08416V8.14665C9.20828 8.73314 9.68428 9.20913 10.2708 9.20913H10.625C10.625 9.55338 10.3763 9.87425 10.0597 9.93871C9.48453 10.0549 9.11265 10.6159 9.22953 11.191C9.33153 11.6954 9.77495 12.0424 10.2694 12.0424C10.3402 12.0424 10.4103 12.0353 10.4819 12.0212C11.7958 11.7549 12.75 10.572 12.75 9.20913V6.73C12.75 6.1435 12.274 5.66751 11.6875 5.66751ZM17 8.73031V13.2331C17 15.3106 15.3099 17 13.2331 17H9.23307C4.29312 17.0007 0.332799 13.6064 0.020422 9.10501C-0.149579 6.64358 0.747886 4.23457 2.48473 2.49492C4.22228 0.755984 6.63347 -0.154213 9.0914 0.0214516C13.5263 0.321781 17 4.14744 17 8.73031ZM14.875 8.73031C14.875 5.26093 12.2711 2.36672 8.94761 2.14076C8.80169 2.13084 8.65578 2.12588 8.51057 2.12588C6.81622 2.12588 5.18917 2.79384 3.98924 3.99586C2.68661 5.3006 2.01298 7.10895 2.14119 8.95768C2.37848 12.3867 5.36129 14.875 9.23307 14.875H13.2331C14.1383 14.875 14.875 14.1384 14.875 13.2331V8.73031Z" fill="white"/>
</g>
<defs>
<filter id="filter0_d_45_332" x="-20" y="-18" width="57" height="57" filterUnits="userSpaceOnUse" color-interpolation-filters="sRGB">
<feFlood flood-opacity="0" result="BackgroundImageFix"/>
<feColorMatrix in="SourceAlpha" type="matrix" values="0 0 0 0 0 0 0 0 0 0 0 0 0 0 0 0 0 0 127 0" result="hardAlpha"/>
<feOffset dy="2"/>
<feGaussianBlur stdDeviation="10"/>
<feComposite in2="hardAlpha" operator="out"/>
<feColorMatrix type="matrix" values="0 0 0 0 0 0 0 0 0 0 0 0 0 0 0 0 0 0 0.25 0"/>
<feBlend mode="normal" in2="BackgroundImageFix" result="effect1_dropShadow_45_332"/>
<feBlend mode="normal" in="SourceGraphic" in2="effect1_dropShadow_45_332" result="shape"/>
</filter>
</defs>
</svg>
