<svg width="26" height="22" viewBox="0 0 26 22" fill="none" xmlns="http://www.w3.org/2000/svg">
<path d="M18.2549 0C17.0806 0.0182655 15.9319 0.346073 14.9249 0.95032C13.9178 1.55457 13.088 2.41385 12.5193 3.44141C11.9505 2.41385 11.1207 1.55457 10.1136 0.95032C9.10657 0.346073 7.95788 0.0182655 6.78358 0C4.9116 0.0813327 3.14789 0.900245 1.87778 2.27783C0.60767 3.65541 -0.0656051 5.47968 0.00504855 7.3521C0.00504855 12.0939 4.99613 17.2727 9.18213 20.784C10.1168 21.5694 11.2984 22 12.5193 22C13.7401 22 14.9218 21.5694 15.8564 20.784C20.0424 17.2727 25.0335 12.0939 25.0335 7.3521C25.1041 5.47968 24.4308 3.65541 23.1607 2.27783C21.8906 0.900245 20.1269 0.0813327 18.2549 0Z" fill="#656565"/>
</svg>
