<svg width="30" height="24" viewBox="0 0 30 24" fill="none" xmlns="http://www.w3.org/2000/svg">
<path d="M27.6884 2.63652C27.244 2.45 26.7545 2.40097 26.2823 2.49568C25.8102 2.59039 25.3767 2.82455 25.037 3.16834L21.8919 6.3372L16.3143 0.717556C15.8582 0.258105 15.2396 0 14.5946 0C13.9496 0 13.331 0.258105 12.8749 0.717556L7.2973 6.3372L4.15216 3.16834C3.81198 2.8257 3.37861 2.59237 2.90683 2.49785C2.43506 2.40333 1.94606 2.45186 1.50165 2.63731C1.05725 2.82276 0.67739 3.1368 0.410104 3.53974C0.142818 3.94267 0.000102708 4.4164 0 4.90104L0 17.873C0.00193118 19.4974 0.643235 21.0547 1.78324 22.2033C2.92325 23.3519 4.46887 23.9981 6.08108 24H23.1081C24.7203 23.9981 26.2659 23.3519 27.406 22.2033C28.546 21.0547 29.1873 19.4974 29.1892 17.873V4.90104C29.1893 4.41636 29.0468 3.94253 28.7797 3.53945C28.5125 3.13637 28.1327 2.82215 27.6884 2.63652Z" fill="white"/>
</svg>
