<svg width="31" height="27" viewBox="0 0 31 27" fill="none" xmlns="http://www.w3.org/2000/svg">
<path d="M22.4038 0C20.9626 0.0224167 19.5528 0.424726 18.3169 1.1663C17.0809 1.90788 16.0625 2.96246 15.3645 4.22354C14.6666 2.96246 13.6482 1.90788 12.4122 1.1663C11.1762 0.424726 9.76649 0.0224167 8.3253 0C6.02787 0.0998173 3.86332 1.10485 2.30455 2.79552C0.745776 4.48619 -0.0805154 6.72507 0.00619594 9.02303C0.00619594 14.8426 6.13162 21.1984 11.269 25.5076C12.416 26.4715 13.8663 27 15.3645 27C16.8628 27 18.3131 26.4715 19.4601 25.5076C24.5975 21.1984 30.7229 14.8426 30.7229 9.02303C30.8096 6.72507 29.9833 4.48619 28.4245 2.79552C26.8658 1.10485 24.7012 0.0998173 22.4038 0Z" fill="white"/>
</svg>
