<svg width="22" height="22" viewBox="0 0 22 22" fill="none" xmlns="http://www.w3.org/2000/svg">
<path d="M11 13.7449C9.48121 13.7449 8.24999 14.9769 8.24999 16.4966V22H13.75V16.4966C13.75 14.9769 12.5188 13.7449 11 13.7449Z" fill="black"/>
<path d="M15.5833 16.4965V22H19.25C20.7687 22 22 20.768 22 19.2483V10.8822C22.0002 10.4056 21.8151 9.94774 21.4839 9.60537L13.6941 1.17869C12.3196 -0.309387 9.9998 -0.400752 8.51266 0.974587C8.44202 1.03994 8.37395 1.108 8.30868 1.17869L0.532597 9.60261C0.19134 9.94641 -0.000128841 10.4114 6.50473e-08 10.8959V19.2483C6.50473e-08 20.768 1.23122 22 2.75 22H6.41664V16.4965C6.43379 13.9954 8.4519 11.953 10.8885 11.8941C13.4067 11.8333 15.5641 13.9106 15.5833 16.4965Z" fill="#060C2E"/>
<path d="M11 13.7449C9.48121 13.7449 8.24999 14.9769 8.24999 16.4966V22H13.75V16.4966C13.75 14.9769 12.5188 13.7449 11 13.7449Z" fill="#060C2E"/>
</svg>
