<svg width="59" height="62" viewBox="0 0 59 62" fill="none" xmlns="http://www.w3.org/2000/svg">
<g filter="url(#filter0_d_40_150)">
<path d="M29.1034 18C26.69 18.0027 24.3762 18.9673 22.6696 20.6824C20.963 22.3974 20.0029 24.7228 20 27.1483C20 29.5041 21.815 33.191 25.3949 38.1061C25.8211 38.6929 26.3791 39.1703 27.0235 39.4994C27.668 39.8285 28.3806 40 29.1034 40C29.8263 40 30.5389 39.8285 31.1833 39.4994C31.8278 39.1703 32.3858 38.6929 32.812 38.1061C36.3919 33.191 38.2069 29.5041 38.2069 27.1483C38.204 24.7228 37.2439 22.3974 35.5373 20.6824C33.8307 18.9673 31.5169 18.0027 29.1034 18ZM29.1034 30.7948C28.3819 30.7948 27.6765 30.5798 27.0766 30.1769C26.4766 29.774 26.009 29.2013 25.7328 28.5313C25.4567 27.8613 25.3845 27.1241 25.5252 26.4128C25.666 25.7016 26.0135 25.0482 26.5237 24.5354C27.0339 24.0226 27.684 23.6734 28.3917 23.5319C29.0994 23.3905 29.833 23.4631 30.4996 23.7406C31.1662 24.0181 31.736 24.4881 32.1369 25.0911C32.5378 25.694 32.7518 26.403 32.7518 27.1282C32.7518 28.1006 32.3674 29.0332 31.6832 29.7209C30.999 30.4085 30.071 30.7948 29.1034 30.7948Z" fill="white"/>
</g>
<defs>
<filter id="filter0_d_40_150" x="0" y="0" width="58.2069" height="62" filterUnits="userSpaceOnUse" color-interpolation-filters="sRGB">
<feFlood flood-opacity="0" result="BackgroundImageFix"/>
<feColorMatrix in="SourceAlpha" type="matrix" values="0 0 0 0 0 0 0 0 0 0 0 0 0 0 0 0 0 0 127 0" result="hardAlpha"/>
<feOffset dy="2"/>
<feGaussianBlur stdDeviation="10"/>
<feComposite in2="hardAlpha" operator="out"/>
<feColorMatrix type="matrix" values="0 0 0 0 0 0 0 0 0 0 0 0 0 0 0 0 0 0 0.25 0"/>
<feBlend mode="normal" in2="BackgroundImageFix" result="effect1_dropShadow_40_150"/>
<feBlend mode="normal" in="SourceGraphic" in2="effect1_dropShadow_40_150" result="shape"/>
</filter>
</defs>
</svg>
