<svg width="65" height="70" viewBox="0 0 65 70" fill="none" xmlns="http://www.w3.org/2000/svg">
<g filter="url(#filter0_d_45_263)">
<path d="M27.4323 38.1375C27.4323 38.725 26.9227 39.2125 26.3261 39.2125H25.2946V37.0625H26.3386C26.9351 37.0625 27.4447 37.55 27.4447 38.1375H27.4323ZM36.1571 28H44.2854C43.8504 26.8625 43.1917 25.8125 42.3093 24.925L37.9841 20.5625C37.1017 19.675 36.0577 19.0125 34.9267 18.575V26.75C34.9267 27.4375 35.486 28 36.1696 28H36.1571ZM32.5404 37.0625H31.4964V41.4375H32.5404C33.137 41.4375 33.6466 40.95 33.6466 40.3625V38.1375C33.6466 37.55 33.137 37.0625 32.5404 37.0625ZM44.8571 31.1125V41.75C44.8571 45.2 42.0731 48 38.6429 48H26.2143C22.784 48 20 45.2 20 41.75V24.25C20 20.8 22.784 18 26.2143 18H31.8196C32.0184 18 32.2173 18.0125 32.4286 18.025V26.75C32.4286 28.8125 34.1064 30.5 36.1571 30.5H44.8323C44.8447 30.7 44.8571 30.9 44.8571 31.1125ZM28.9859 38.1375C28.9859 36.6875 27.7927 35.5 26.3261 35.5H24.9714C24.2879 35.5 23.7286 36.0625 23.7286 36.75V42.3C23.7286 42.7375 24.0766 43.075 24.4991 43.075C24.9217 43.075 25.2697 42.725 25.2697 42.3V40.775H26.3137C27.7803 40.775 28.9734 39.5875 28.9734 38.1375H28.9859ZM35.2001 38.1375C35.2001 36.6875 34.007 35.5 32.5404 35.5H31.1857C30.5021 35.5 29.9429 36.0625 29.9429 36.75V42.3C29.9429 42.7375 30.2909 43 30.7134 43C31.136 43 32.528 43 32.528 43C33.9946 43 35.1877 41.8125 35.1877 40.3625V38.1375H35.2001ZM41.1534 36.2875C41.1534 35.85 40.8054 35.5125 40.3829 35.5125H37.5119C37.0769 35.5125 36.7413 35.8625 36.7413 36.2875V42.3C36.7413 42.7375 37.0893 43.075 37.5119 43.075C37.9344 43.075 38.2824 42.725 38.2824 42.3V40.05H39.8236C40.2586 40.05 40.5941 39.7 40.5941 39.275C40.5941 38.85 40.2461 38.5 39.8236 38.5H38.2824V37.075H40.3829C40.8179 37.075 41.1534 36.725 41.1534 36.3V36.2875Z" fill="#060C2E"/>
</g>
<defs>
<filter id="filter0_d_45_263" x="0" y="0" width="64.8572" height="70" filterUnits="userSpaceOnUse" color-interpolation-filters="sRGB">
<feFlood flood-opacity="0" result="BackgroundImageFix"/>
<feColorMatrix in="SourceAlpha" type="matrix" values="0 0 0 0 0 0 0 0 0 0 0 0 0 0 0 0 0 0 127 0" result="hardAlpha"/>
<feOffset dy="2"/>
<feGaussianBlur stdDeviation="10"/>
<feComposite in2="hardAlpha" operator="out"/>
<feColorMatrix type="matrix" values="0 0 0 0 0 0 0 0 0 0 0 0 0 0 0 0 0 0 0.05 0"/>
<feBlend mode="normal" in2="BackgroundImageFix" result="effect1_dropShadow_45_263"/>
<feBlend mode="normal" in="SourceGraphic" in2="effect1_dropShadow_45_263" result="shape"/>
</filter>
</defs>
</svg>
