<svg width="22" height="22" viewBox="0 0 22 22" fill="none" xmlns="http://www.w3.org/2000/svg">
<path d="M21.5967 19.6581L17.3387 15.3983C20.5247 11.1406 19.656 5.10615 15.3983 1.92007C11.1406 -1.26601 5.10615 -0.397273 1.92007 3.86044C-1.26601 8.11815 -0.397273 14.1526 3.86044 17.3387C7.28059 19.898 11.9781 19.898 15.3983 17.3387L19.6581 21.5985C20.1935 22.1338 21.0614 22.1338 21.5967 21.5985C22.132 21.0632 22.132 20.1953 21.5967 19.66L21.5967 19.6581ZM9.66486 16.5165C5.88081 16.5165 2.81326 13.4489 2.81326 9.66486C2.81326 5.88081 5.88081 2.81326 9.66486 2.81326C13.4489 2.81326 16.5165 5.88081 16.5165 9.66486C16.5124 13.4472 13.4472 16.5124 9.66486 16.5165Z" fill="#656565"/>
</svg>
