<svg width="21" height="18" viewBox="0 0 21 18" fill="none" xmlns="http://www.w3.org/2000/svg">
<path d="M9.3472 3.31152L10.243 4.93006L11.1389 3.31152C11.5169 2.62843 12.0686 2.0572 12.738 1.65551C13.3989 1.25899 14.1515 1.04154 14.9217 1.02434C16.1717 1.08658 17.348 1.63694 18.1969 2.55772C19.0527 3.48593 19.5064 4.71512 19.4588 5.97675L19.458 5.99604V6.01535C19.458 7.61824 18.6003 9.42475 17.1973 11.2676C15.8128 13.0862 13.9991 14.8083 12.3154 16.2206L12.3147 16.2212C11.7345 16.7088 11.0009 16.9761 10.243 16.9761C9.48516 16.9761 8.75158 16.7088 8.17137 16.2212L8.17067 16.2206C6.48691 14.8083 4.67321 13.0862 3.28873 11.2676C1.8858 9.42475 1.02802 7.61824 1.02802 6.01535V5.99604L1.02729 5.97674C0.979686 4.71512 1.43334 3.48593 2.28913 2.55772C3.13808 1.63694 4.31431 1.08658 5.56437 1.02434C6.33453 1.04154 7.08714 1.25899 7.74802 1.65551C8.41749 2.0572 8.96912 2.62843 9.3472 3.31152Z" stroke="white" stroke-width="2"/>
</svg>
