<svg width="13" height="24" viewBox="0 0 13 24" fill="none" xmlns="http://www.w3.org/2000/svg">
<path d="M1.62812 15.9599L8.92547 23.2974C9.37323 23.7474 9.98044 24.0001 10.6135 24C11.2466 23.9998 11.8537 23.7468 12.3013 23.2966C12.7488 22.8464 13.0001 22.2358 13 21.5993C12.9999 20.9627 12.7482 20.3523 12.3005 19.9023L5.0031 12.5664C4.92901 12.4921 4.87023 12.4038 4.83012 12.3066C4.79001 12.2094 4.76936 12.1052 4.76936 12C4.76936 11.8948 4.79001 11.7906 4.83012 11.6934C4.87023 11.5962 4.92901 11.5079 5.0031 11.4336L12.3005 4.09774C12.7482 3.64772 12.9999 3.03729 13 2.40073C13.0001 1.76416 12.7488 1.15362 12.3013 0.703394C11.8537 0.25317 11.2466 0.000150681 10.6135 0C9.98044 -0.000150681 9.37323 0.252579 8.92547 0.702591L1.62812 8.04007C0.585498 9.09131 0 10.5154 0 12C0 13.4846 0.585498 14.9087 1.62812 15.9599Z" fill="#DFDFDF"/>
</svg>
