<svg width="15" height="15" viewBox="0 0 15 15" fill="none" xmlns="http://www.w3.org/2000/svg">
<path d="M7.49958 0C6.31476 0.000126879 5.14682 0.280931 4.09144 0.819408C3.03607 1.35789 2.12328 2.13872 1.42786 3.09794C0.732434 4.05715 0.274161 5.16747 0.0905805 6.33792C-0.0930002 7.50838 0.00333412 8.70567 0.371692 9.83172C0.740049 10.9578 1.36995 11.9805 2.20979 12.8162C3.04964 13.652 4.07552 14.2768 5.20342 14.6396C6.33132 15.0025 7.52913 15.0929 8.69873 14.9037C9.86834 14.7144 10.9765 14.2507 11.9323 13.5506L10.8229 12.0387C9.8027 12.7857 8.5606 13.1672 7.29699 13.1217C6.03339 13.0761 4.82197 12.6062 3.85821 11.7878C2.89444 10.9693 2.23453 9.85006 1.98496 8.61057C1.73539 7.37108 1.9107 6.08366 2.48262 4.95603C3.05454 3.8284 3.98971 2.92633 5.13723 2.39536C6.28476 1.86439 7.57772 1.73549 8.80749 2.02946C10.0373 2.32343 11.1321 3.02312 11.9154 4.01565C12.6987 5.00817 13.1248 6.23564 13.1249 7.5V8.4375C13.1249 8.68614 13.0261 8.9246 12.8503 9.10041C12.6744 9.27623 12.436 9.375 12.1873 9.375C11.9387 9.375 11.7002 9.27623 11.5244 9.10041C11.3486 8.9246 11.2498 8.68614 11.2498 8.4375V7.5C11.2531 6.63436 10.958 5.79402 10.4141 5.12054C9.87025 4.44706 9.11088 3.98158 8.26391 3.80253C7.41694 3.62348 6.53414 3.74179 5.76421 4.13753C4.99428 4.53327 4.38427 5.18227 4.03695 5.97518C3.68962 6.7681 3.6262 7.65649 3.85737 8.4907C4.08853 9.32491 4.60016 10.054 5.30606 10.5551C6.01197 11.0562 6.86901 11.2987 7.73283 11.2417C8.59664 11.1848 9.41444 10.8319 10.0485 10.2425C10.4175 10.6855 10.9143 11.0037 11.471 11.1538C12.0277 11.3039 12.6172 11.2784 13.1589 11.0809C13.7006 10.8835 14.1682 10.5236 14.4977 10.0505C14.8272 9.57735 15.0026 9.01405 15 8.4375V7.5C14.9978 5.51154 14.2069 3.60513 12.8008 2.19907C11.3947 0.793018 9.48815 0.00215068 7.49958 0ZM7.49958 9.375C7.12873 9.375 6.76619 9.26503 6.45784 9.05901C6.14948 8.85298 5.90914 8.56014 5.76722 8.21753C5.6253 7.87492 5.58817 7.49792 5.66052 7.13421C5.73287 6.77049 5.91145 6.4364 6.17369 6.17417C6.43593 5.91195 6.77004 5.73337 7.13377 5.66103C7.4975 5.58868 7.87452 5.62581 8.21715 5.76773C8.55978 5.90964 8.85263 6.14996 9.05867 6.45831C9.26471 6.76665 9.37468 7.12916 9.37468 7.5C9.37468 7.99728 9.17713 8.47419 8.82548 8.82583C8.47383 9.17746 7.99689 9.375 7.49958 9.375Z" fill="#060C2E"/>
</svg>
