<svg width="12" height="17" viewBox="0 0 12 17" fill="none" xmlns="http://www.w3.org/2000/svg">
<path d="M5.27902 9.92943C2.26029 10.2023 -0.0395604 12.7531 0.000515815 15.7838V15.9375C0.000515815 16.5243 0.476217 17 1.06302 17C1.64981 17 2.12552 16.5243 2.12552 15.9375V15.7413C2.09357 13.8804 3.46686 12.2936 5.31302 12.058C7.26181 11.8647 8.9983 13.2879 9.19154 15.2367C9.20296 15.3519 9.20874 15.4676 9.20884 15.5834V15.9375C9.20884 16.5243 9.68454 17 10.2713 17C10.8581 17 11.3338 16.5243 11.3338 15.9375V15.5833C11.3304 12.4502 8.78766 9.91309 5.65454 9.91655C5.52927 9.91671 5.40403 9.92099 5.27902 9.92943Z" fill="white"/>
<path d="M5.66718 8.5C8.01437 8.5 9.91718 6.5972 9.91718 4.25C9.91718 1.9028 8.01437 0 5.66718 0C3.31998 0 1.41718 1.9028 1.41718 4.25C1.4195 6.59623 3.32094 8.49764 5.66718 8.5ZM5.66718 2.125C6.84077 2.125 7.79218 3.0764 7.79218 4.25C7.79218 5.4236 6.84077 6.375 5.66718 6.375C4.49358 6.375 3.54218 5.4236 3.54218 4.25C3.54218 3.0764 4.49358 2.125 5.66718 2.125Z" fill="white"/>
</svg>
