<svg width="22" height="22" viewBox="0 0 22 22" fill="none" xmlns="http://www.w3.org/2000/svg">
<g clip-path="url(#clip0_11_60)">
<path d="M6.80534 19.25C7.16069 20.0671 7.74696 20.7626 8.49214 21.2512C9.23732 21.7397 10.109 21.9999 11 21.9999C11.891 21.9999 12.7627 21.7397 13.5079 21.2512C14.253 20.7626 14.8393 20.0671 15.1947 19.25H6.80534Z" fill="#060C2E"/>
<path d="M20.526 11.5032L18.9347 6.25716C18.4251 4.42231 17.3171 2.81029 15.7867 1.67704C14.2563 0.54379 12.3912 -0.0457288 10.4875 0.00208491C8.5838 0.0498986 6.75063 0.732304 5.27906 1.94095C3.80748 3.1496 2.78185 4.81521 2.365 6.67333L1.12933 11.7489C0.965097 12.4234 0.956199 13.1263 1.10331 13.8047C1.25042 14.4831 1.5497 15.1192 1.97855 15.665C2.40741 16.2108 2.95464 16.6521 3.57896 16.9555C4.20327 17.259 4.88835 17.4167 5.5825 17.4167H16.1397C16.8554 17.4167 17.5612 17.2491 18.2004 16.9274C18.8397 16.6056 19.3947 16.1387 19.8211 15.5638C20.2475 14.989 20.5333 14.3224 20.6557 13.6172C20.7781 12.9121 20.7337 12.1881 20.526 11.5032Z" fill="#060C2E"/>
<circle cx="16.8929" cy="4.32143" r="3.32143" fill="#13EC00" stroke="#D8E5FF" stroke-width="2"/>
</g>
<defs>
<clipPath id="clip0_11_60">
<rect width="22" height="22" fill="white"/>
</clipPath>
</defs>
</svg>
