<svg width="15" height="17" viewBox="0 0 15 17" fill="none" xmlns="http://www.w3.org/2000/svg">
<path d="M12.1179 6.02761V4.98976C12.1179 2.23399 9.88395 0 7.12818 0C4.37241 0 2.13846 2.23399 2.13846 4.98972V6.02758C0.827449 6.69661 0.00160384 8.04354 0 9.5154V13.0795C0.00237235 15.2438 1.75624 16.9977 3.92049 17H10.3359C12.5001 16.9976 14.254 15.2438 14.2564 13.0795V9.51543C14.2548 8.04357 13.4289 6.69661 12.1179 6.02761ZM7.12818 2.13846C8.70289 2.13846 9.97944 3.41502 9.97944 4.98972V5.59491H4.27691V4.98972C4.27691 3.41502 5.55347 2.13846 7.12818 2.13846ZM12.1179 13.0795C12.1179 14.0637 11.3201 14.8615 10.3359 14.8615H3.92053C2.93634 14.8615 2.13849 14.0637 2.13849 13.0795V9.51543C2.13849 8.53124 2.93634 7.7334 3.92053 7.7334H10.3359C11.3201 7.7334 12.1179 8.53124 12.1179 9.51543V13.0795Z" fill="white"/>
<path d="M6.77174 9.87183H7.48455C8.07507 9.87183 8.55378 10.3505 8.55378 10.9411C8.55378 11.5316 8.07507 12.0103 7.48455 12.0103H6.77174C6.18123 12.0103 5.70251 11.5316 5.70251 10.9411C5.70251 10.3505 6.18123 9.87183 6.77174 9.87183Z" fill="white"/>
</svg>
