<svg width="20" height="20" viewBox="0 0 20 20" fill="none" xmlns="http://www.w3.org/2000/svg">
<path d="M2.04863 18.8702L2.0395 18.8666L2.0303 18.8631C1.70597 18.7423 1.44143 18.5384 1.26245 18.2903C1.08434 18.0435 0.996804 17.7619 1.00009 17.4821H1.00016V17.4704V4.20456C1.00139 3.3813 1.35487 2.57471 2.01205 1.96691C2.67189 1.35664 3.582 1.00119 4.54614 1H15.4538C16.418 1.00119 17.3281 1.35664 17.9879 1.96691C18.6453 2.57486 18.9988 3.38169 18.9998 4.20515V17.4704H18.9997L18.9999 17.4827C19.0033 17.7623 18.9161 18.0437 18.7384 18.2905C18.5599 18.5385 18.2959 18.7424 17.972 18.8636L17.972 18.8636L17.9612 18.8678C17.7406 18.9532 17.5016 18.9985 17.2584 18.9994C17.0256 18.9988 16.7969 18.9555 16.5859 18.8736C16.3744 18.7916 16.1875 18.6734 16.0342 18.5295L16.0342 18.5295L16.0269 18.5227L10.677 13.6017L9.99999 12.979L9.323 13.6017L3.97309 18.5227L3.97305 18.5227L3.96536 18.5299C3.73227 18.7489 3.42384 18.906 3.07647 18.9693C2.72894 19.0327 2.36972 18.9971 2.04863 18.8702Z" stroke="white" stroke-width="2"/>
</svg>
