<svg width="17" height="22" viewBox="0 0 17 22" fill="none" xmlns="http://www.w3.org/2000/svg">
<path d="M2.75 5.5C2.75 4.41221 3.07257 3.34884 3.67692 2.44437C4.28127 1.5399 5.14025 0.834947 6.14524 0.418665C7.15023 0.00238305 8.2561 -0.106535 9.323 0.105683C10.3899 0.317902 11.3699 0.841726 12.1391 1.61092C12.9083 2.3801 13.4321 3.36011 13.6443 4.42701C13.8565 5.4939 13.7476 6.59977 13.3313 7.60476C12.9151 8.60976 12.2101 9.46874 11.3056 10.0731C10.4012 10.6774 9.3378 11 8.25 11C6.79176 10.9985 5.39366 10.4186 4.36252 9.38748C3.33139 8.35635 2.75146 6.95825 2.75 5.5ZM8.25 12.8333C6.06271 12.8358 3.9657 13.7057 2.41905 15.2524C0.872399 16.799 0.00242628 18.896 0 21.0833C0 21.3265 0.0965771 21.5596 0.268485 21.7315C0.440394 21.9034 0.673552 22 0.916667 22H15.5833C15.8264 22 16.0596 21.9034 16.2315 21.7315C16.4034 21.5596 16.5 21.3265 16.5 21.0833C16.4976 18.896 15.6276 16.799 14.081 15.2524C12.5343 13.7057 10.4373 12.8358 8.25 12.8333Z" fill="#656565"/>
</svg>
