<svg width="32" height="32" viewBox="0 0 32 32" fill="none" xmlns="http://www.w3.org/2000/svg">
<path d="M11.9994 16C16.4115 16 19.9996 12.412 19.9996 8C19.9996 3.588 16.4115 0 11.9994 0C7.58733 0 3.99924 3.588 3.99924 8C3.99924 12.412 7.58733 16 11.9994 16ZM11.9994 4C14.2048 4 15.9995 5.79467 15.9995 8C15.9995 10.2053 14.2048 12 11.9994 12C9.79404 12 7.99934 10.2053 7.99934 8C7.99934 5.79467 9.79404 4 11.9994 4ZM14.6662 23.1213C13.8128 22.82 12.9154 22.6667 11.9994 22.6667C7.786 22.6667 4.27125 25.9453 3.99524 30.132C3.92591 31.1893 3.04722 32 2.00186 32C1.95786 32 1.91386 32 1.86853 31.996C0.765836 31.924 -0.0688498 30.9707 0.00448517 29.8693C0.417828 23.588 5.68728 18.668 12.0008 18.668C13.3728 18.668 14.7182 18.8973 16.0009 19.352C17.0422 19.72 17.5876 20.8627 17.2195 21.904C16.8515 22.9453 15.7102 23.4907 14.6675 23.1227L14.6662 23.1213ZM31.0132 21.3547L22.0597 30.308C20.9756 31.392 19.5063 32 17.9742 32H16.7009C16.3329 32 16.0342 31.7013 16.0342 31.3333V30.06C16.0342 28.528 16.6435 27.0573 17.7262 25.9747L26.8038 16.8973C28.0745 15.6267 30.1825 15.7053 31.3492 17.132C32.3639 18.372 32.1466 20.2213 31.0132 21.3547Z" fill="white"/>
</svg>
